<?xml version="1.0" encoding="utf-8"?>
<!-- Generator: Adobe Illustrator 23.0.1, SVG Export Plug-In . SVG Version: 6.00 Build 0)  -->
<svg version="1.1" id="Layer_1" xmlns="http://www.w3.org/2000/svg" xmlns:xlink="http://www.w3.org/1999/xlink" x="0px" y="0px"
	 viewBox="0 0 250 250" style="enable-background:new 0 0 250 250;" xml:space="preserve">
<style type="text/css">
	.st0{stroke:#F2F2F2;stroke-miterlimit:10;}
	.st1{fill:#FFFFFF;}
	.st2{fill:#FBAE17;}
	.st3{fill:none;stroke:#FBAE17;stroke-width:2;stroke-miterlimit:10;}
	.st4{fill:none;stroke:#FBAE17;stroke-width:3;stroke-miterlimit:10;}
</style>
<text transform="matrix(1 0 0 1 -981.4258 130.0039)" class="st2" style="font-family:'HacenSaudiArabia'; font-size:16.0277px;"> للخ ةطقللا ضرع يهنتي</text>
<text transform="matrix(1 0 0 1 -1077.0498 -101.5488)" style="fill:#FBB03B; font-family:'HacenSaudiArabia'; font-size:57.6143px;">500</text>
<text transform="matrix(1 0 0 1 -952.4531 -109.3574)" style="fill:#FBB03B; font-family:'ArialMT'; font-size:28.3998px;">EGP</text>
<path class="st0" d="M-807.02,208.61h-42.23c-5.34,0-9.67-4.33-9.67-9.67v-42.23c0-5.34,4.33-9.67,9.67-9.67h42.23
	c5.34,0,9.67,4.33,9.67,9.67v42.23C-797.35,204.28-801.68,208.61-807.02,208.61z"/>
<text transform="matrix(1 0 0 1 -841.415 175.916)" class="st1" style="font-family:'HacenSaudiArabia'; font-size:21.0541px;">05</text>
<text transform="matrix(1 0 0 1 -878.4688 183.6016)" style="font-family:'HacenSaudiArabia'; font-size:28.0434px;">:</text>
<text transform="matrix(1 0 0 1 -957.1279 183.6016)" style="font-family:'HacenSaudiArabia'; font-size:28.0434px;">:</text>
<text transform="matrix(1 0 0 1 -1033.5654 183.6016)" style="font-family:'HacenSaudiArabia'; font-size:28.0434px;">:</text>
<path class="st0" d="M-886.64,208.61h-42.23c-5.34,0-9.67-4.33-9.67-9.67v-42.23c0-5.34,4.33-9.67,9.67-9.67h42.23
	c5.34,0,9.67,4.33,9.67,9.67v42.23C-876.97,204.28-881.3,208.61-886.64,208.61z"/>
<text transform="matrix(1 0 0 1 -920.8652 175.916)" class="st1" style="font-family:'HacenSaudiArabia'; font-size:21.0541px;">23</text>
<path class="st0" d="M-965.27,208.61h-42.23c-5.34,0-9.67-4.33-9.67-9.67v-42.23c0-5.34,4.33-9.67,9.67-9.67h42.23
	c5.34,0,9.67,4.33,9.67,9.67v42.23C-955.6,204.28-959.93,208.61-965.27,208.61z"/>
<path class="st0" d="M-1040.54,208.61h-42.23c-5.34,0-9.67-4.33-9.67-9.67v-42.23c0-5.34,4.33-9.67,9.67-9.67h42.23
	c5.34,0,9.67,4.33,9.67,9.67v42.23C-1030.88,204.28-1035.2,208.61-1040.54,208.61z"/>
<text transform="matrix(1 0 0 1 -999.4189 175.916)" class="st1" style="font-family:'HacenSaudiArabia'; font-size:21.0541px;">33</text>
<text transform="matrix(1 0 0 1 -1069.1035 175.916)" class="st1" style="font-family:'HacenSaudiArabia'; font-size:21.0541px;">15</text>
<text transform="matrix(1 0 0 1 -1077.0322 194.6914)" class="st1" style="font-family:'HacenSaudiArabia'; font-size:13.1588px;"> موي</text>
<text transform="matrix(1 0 0 1 -1006.2549 194.6914)" class="st1" style="font-family:'HacenSaudiArabia'; font-size:13.1588px;">ةعاس</text>
<text transform="matrix(1 0 0 1 -927.4346 194.6914)" class="st1" style="font-family:'HacenSaudiArabia'; font-size:13.1588px;">ةقيقد</text>
<text transform="matrix(1 0 0 1 -845.3721 194.6914)" class="st1" style="font-family:'HacenSaudiArabia'; font-size:13.1588px;"> ةيناث</text>
<g>
	<g>
		<path class="st1" d="M142.27,71.18c8.86,0,15.99,7.12,15.99,15.99c0,1.45-0.58,3.05-1.16,4.5l-0.29,0.73l-0.58,2.03h15.11
			c5.67,0,10.17,4.5,10.17,10.17v63.94c0,5.67-4.5,10.17-10.17,10.17l-93.01,0c-5.67,0-10.17-4.5-10.17-10.17v-63.94
			c0-5.67,4.5-10.17,10.17-10.17h15.11l-0.73-1.89l-0.29-0.73c-0.58-1.45-1.16-3.05-1.16-4.65c0-8.86,7.12-15.99,15.99-15.99
			c5.38,0,10.32,2.62,13.37,7.12l2.91,3.92l1.16,1.6l1.16-1.6l2.91-3.92C131.95,73.95,136.89,71.18,142.27,71.18 M142.27,69.73
			c-6.1,0-11.34,3.2-14.53,7.85l-2.91,3.92l-2.91-3.92c-3.2-4.65-8.43-7.85-14.53-7.85c-9.59,0-17.44,7.85-17.44,17.44
			c0,2.03,0.87,3.92,1.45,5.81H78.33c-6.39,0-11.63,5.23-11.63,11.63v63.94c0,6.39,5.23,11.63,11.63,11.63h93.01
			c6.39,0,11.63-5.23,11.63-11.63l0-63.94c0-6.39-5.23-11.63-11.63-11.63h-13.08c0.58-1.74,1.45-3.78,1.45-5.81
			C159.71,77.58,151.86,69.73,142.27,69.73L142.27,69.73z"/>
		<path class="st1" d="M142.27,82.81c2.47,0,4.36,1.89,4.36,4.36c0,2.47-1.89,4.36-4.36,4.36s-4.36-1.89-4.36-4.36
			C137.91,84.7,139.8,82.81,142.27,82.81 M107.39,82.81c2.47,0,4.36,1.89,4.36,4.36c0,2.47-1.89,4.36-4.36,4.36
			c-2.47,0-4.36-1.89-4.36-4.36C103.03,84.7,104.92,82.81,107.39,82.81 M142.27,81.36c-3.2,0-5.81,2.62-5.81,5.81
			c0,3.2,2.62,5.81,5.81,5.81c3.2,0,5.81-2.62,5.81-5.81C148.08,83.97,145.47,81.36,142.27,81.36z M107.39,81.36
			c-3.2,0-5.81,2.62-5.81,5.81c0,3.2,2.62,5.81,5.81,5.81c3.2,0,5.81-2.62,5.81-5.81S110.59,81.36,107.39,81.36z"/>
		<path class="st1" d="M124.83,104.17l18.46,24.56l0.87,1.16l1.16-0.87l9.45-6.83l1.16-0.87l-1.02-1.16l-11.04-14.1h26.01v31.97
			h-90.1v-31.97h26.01l-11.19,14.1l-1.02,1.16l1.16,0.87l9.45,6.83l1.16,0.87l0.87-1.16L124.83,104.17 M169.88,158.38v8.72l-90.1,0
			v-8.72L169.88,158.38 M124.83,101.7l-19.62,26.16l-9.45-6.83l13.08-16.42H78.33v34.88h93.01v-34.88h-30.52l13.08,16.42l-9.45,6.83
			L124.83,101.7z M171.34,156.93H78.33v11.63h93.01V156.93z"/>
	</g>
	<g>
		<path class="st1" d="M124.81,245C58.62,245,4.77,191.15,4.77,124.97C4.77,58.78,58.62,4.93,124.81,4.93
			s120.04,53.85,120.04,120.04C244.84,191.15,191,245,124.81,245z M124.81,21.33c-57.14,0-103.63,46.49-103.63,103.64
			c0,57.14,46.49,103.63,103.63,103.63s103.64-46.49,103.64-103.63C228.44,67.82,181.95,21.33,124.81,21.33z"/>
	</g>
</g>
<g>
	<path class="st2" d="M-627.61,173.58c2.38,0,4.31-1.93,4.31-4.31c0-2.38-1.93-4.32-4.31-4.32c-2.38,0-4.32,1.94-4.32,4.32
		c0,0.48,0.08,0.94,0.23,1.37l-11.76,5.89c-0.77-1.13-2.07-1.87-3.55-1.87c-2.38,0-4.32,1.93-4.32,4.31s1.94,4.32,4.32,4.32
		c1.47,0,2.77-0.75,3.55-1.87l11.76,5.88c-0.15,0.43-0.23,0.89-0.23,1.38c0,2.38,1.94,4.31,4.32,4.31c2.38,0,4.31-1.93,4.31-4.31
		c0-2.38-1.93-4.32-4.31-4.32c-1.47,0-2.78,0.75-3.55,1.87l-11.76-5.88c0.15-0.43,0.23-0.89,0.23-1.38s-0.08-0.94-0.23-1.37
		l11.76-5.89C-630.38,172.84-629.08,173.58-627.61,173.58L-627.61,173.58z"/>
	<path class="st3" d="M-639.23,202.87h116.96c13.05,0,23.63-10.58,23.63-23.63v0c0-13.05-10.58-23.63-23.63-23.63h-116.96
		c-13.05,0-23.63,10.58-23.63,23.63v0C-662.86,192.29-652.28,202.87-639.23,202.87z"/>
	<circle class="st4" cx="-636.07" cy="179.37" r="20.61"/>
	<text transform="matrix(1 0 0 1 -575.5859 184.6758)" class="st2" style="font-family:'HacenSaudiArabia'; font-size:16.4859px;">ريش</text>
</g>
<g>
	<text transform="matrix(1 0 0 1 -986.9512 15.4531)" style="fill:#4D4D4D; font-family:'HacenSaudiArabia'; font-size:31.5265px;"> رمحا ةبنمب رفصا يسرك</text>
</g>
</svg>
