<?xml version="1.0" encoding="utf-8"?>
<!-- Generator: Adobe Illustrator 23.0.1, SVG Export Plug-In . SVG Version: 6.00 Build 0)  -->
<svg version="1.1" id="Layer_1" xmlns="http://www.w3.org/2000/svg" xmlns:xlink="http://www.w3.org/1999/xlink" x="0px" y="0px"
	 viewBox="0 0 250 250" style="enable-background:new 0 0 250 250;" xml:space="preserve">
<style type="text/css">
	.st0{stroke:#F2F2F2;stroke-miterlimit:10;}
	.st1{fill:#FFFFFF;}
	.st2{fill:#FBAE17;}
	.st3{fill:none;stroke:#FBAE17;stroke-width:2;stroke-miterlimit:10;}
	.st4{fill:none;stroke:#FBAE17;stroke-width:3;stroke-miterlimit:10;}
</style>
<text transform="matrix(1 0 0 1 -981.4258 130.0039)" class="st2" style="font-family:'HacenSaudiArabia'; font-size:16.0277px;"> للخ ةطقللا ضرع يهنتي</text>
<text transform="matrix(1 0 0 1 -1077.0498 -101.5488)" style="fill:#FBB03B; font-family:'HacenSaudiArabia'; font-size:57.6143px;">500</text>
<text transform="matrix(1 0 0 1 -952.4531 -109.3574)" style="fill:#FBB03B; font-family:'ArialMT'; font-size:28.3998px;">EGP</text>
<path class="st0" d="M-807.02,208.61h-42.23c-5.34,0-9.67-4.33-9.67-9.67v-42.23c0-5.34,4.33-9.67,9.67-9.67h42.23
	c5.34,0,9.67,4.33,9.67,9.67v42.23C-797.35,204.28-801.68,208.61-807.02,208.61z"/>
<text transform="matrix(1 0 0 1 -841.415 175.916)" class="st1" style="font-family:'HacenSaudiArabia'; font-size:21.0541px;">05</text>
<text transform="matrix(1 0 0 1 -878.4688 183.6016)" style="font-family:'HacenSaudiArabia'; font-size:28.0434px;">:</text>
<text transform="matrix(1 0 0 1 -957.1279 183.6016)" style="font-family:'HacenSaudiArabia'; font-size:28.0434px;">:</text>
<text transform="matrix(1 0 0 1 -1033.5654 183.6016)" style="font-family:'HacenSaudiArabia'; font-size:28.0434px;">:</text>
<path class="st0" d="M-886.64,208.61h-42.23c-5.34,0-9.67-4.33-9.67-9.67v-42.23c0-5.34,4.33-9.67,9.67-9.67h42.23
	c5.34,0,9.67,4.33,9.67,9.67v42.23C-876.97,204.28-881.3,208.61-886.64,208.61z"/>
<text transform="matrix(1 0 0 1 -920.8652 175.916)" class="st1" style="font-family:'HacenSaudiArabia'; font-size:21.0541px;">23</text>
<path class="st0" d="M-965.27,208.61h-42.23c-5.34,0-9.67-4.33-9.67-9.67v-42.23c0-5.34,4.33-9.67,9.67-9.67h42.23
	c5.34,0,9.67,4.33,9.67,9.67v42.23C-955.6,204.28-959.93,208.61-965.27,208.61z"/>
<path class="st0" d="M-1040.54,208.61h-42.23c-5.34,0-9.67-4.33-9.67-9.67v-42.23c0-5.34,4.33-9.67,9.67-9.67h42.23
	c5.34,0,9.67,4.33,9.67,9.67v42.23C-1030.88,204.28-1035.2,208.61-1040.54,208.61z"/>
<text transform="matrix(1 0 0 1 -999.4189 175.916)" class="st1" style="font-family:'HacenSaudiArabia'; font-size:21.0541px;">33</text>
<text transform="matrix(1 0 0 1 -1069.1035 175.916)" class="st1" style="font-family:'HacenSaudiArabia'; font-size:21.0541px;">15</text>
<text transform="matrix(1 0 0 1 -1077.0322 194.6914)" class="st1" style="font-family:'HacenSaudiArabia'; font-size:13.1588px;"> موي</text>
<text transform="matrix(1 0 0 1 -1006.2549 194.6914)" class="st1" style="font-family:'HacenSaudiArabia'; font-size:13.1588px;">ةعاس</text>
<text transform="matrix(1 0 0 1 -927.4346 194.6914)" class="st1" style="font-family:'HacenSaudiArabia'; font-size:13.1588px;">ةقيقد</text>
<text transform="matrix(1 0 0 1 -845.3721 194.6914)" class="st1" style="font-family:'HacenSaudiArabia'; font-size:13.1588px;"> ةيناث</text>
<g>
	<g>
		<g>
			<path class="st1" d="M142.26,70.18c8.86,0,15.99,7.12,15.99,15.99c0,1.45-0.58,3.05-1.16,4.5l-0.29,0.73l-0.58,2.03h15.11
				c5.67,0,10.17,4.5,10.17,10.17v63.94c0,5.67-4.5,10.17-10.17,10.17l-93.01,0c-5.67,0-10.17-4.5-10.17-10.17v-63.94
				c0-5.67,4.5-10.17,10.17-10.17h15.11l-0.73-1.89l-0.29-0.73c-0.58-1.45-1.16-3.05-1.16-4.65c0-8.86,7.12-15.99,15.99-15.99
				c5.38,0,10.32,2.62,13.37,7.12l2.91,3.92l1.16,1.6l1.16-1.6l2.91-3.92C131.94,72.95,136.88,70.18,142.26,70.18 M142.26,68.73
				c-6.1,0-11.34,3.2-14.53,7.85l-2.91,3.92l-2.91-3.92c-3.2-4.65-8.43-7.85-14.53-7.85c-9.59,0-17.44,7.85-17.44,17.44
				c0,2.03,0.87,3.92,1.45,5.81H78.32c-6.39,0-11.63,5.23-11.63,11.63v63.94c0,6.39,5.23,11.63,11.63,11.63h93.01
				c6.39,0,11.63-5.23,11.63-11.63l0-63.94c0-6.39-5.23-11.63-11.63-11.63h-13.08c0.58-1.74,1.45-3.78,1.45-5.81
				C159.7,76.58,151.85,68.73,142.26,68.73L142.26,68.73z"/>
			<path class="st1" d="M171.32,181.18H78.32c-7.51,0-13.63-6.11-13.63-13.63v-63.94c0-7.51,6.11-13.63,13.63-13.63h10.3
				c-0.37-1.17-0.68-2.45-0.68-3.81c0-10.72,8.72-19.44,19.44-19.44c6.38,0,12.43,3.26,16.18,8.71l1.26,1.7l1.3-1.75
				c3.71-5.4,9.76-8.66,16.14-8.66h0c10.72,0,19.44,8.72,19.44,19.44c0,1.35-0.29,2.62-0.66,3.81h10.29
				c7.51,0,13.63,6.11,13.63,13.63l0,63.94C184.95,175.06,178.84,181.18,171.32,181.18z M78.31,95.44c-4.58,0-8.17,3.59-8.17,8.17
				v63.94c0,4.58,3.59,8.17,8.17,8.17l93.01,0c4.58,0,8.17-3.59,8.17-8.17v-63.94c0-4.58-3.59-8.17-8.17-8.17h-17.76l1.38-4.78
				l0.29-0.73c0.53-1.32,1.02-2.69,1.02-3.76c0-7.71-6.27-13.99-13.99-13.99l0-1.45v1.45c-4.56,0-9.01,2.36-11.9,6.3l-5.68,7.74
				L119,78.49c-2.74-4.04-7.01-6.31-11.76-6.31c-7.71,0-13.99,6.27-13.99,13.99c0,1.25,0.5,2.62,1.02,3.91l2.07,5.36H78.31z"/>
		</g>
		<g>
			<path class="st1" d="M142.26,81.81c2.47,0,4.36,1.89,4.36,4.36c0,2.47-1.89,4.36-4.36,4.36s-4.36-1.89-4.36-4.36
				C137.9,83.7,139.79,81.81,142.26,81.81 M107.38,81.81c2.47,0,4.36,1.89,4.36,4.36c0,2.47-1.89,4.36-4.36,4.36
				c-2.47,0-4.36-1.89-4.36-4.36C103.02,83.7,104.91,81.81,107.38,81.81 M142.26,80.36c-3.2,0-5.81,2.62-5.81,5.81
				c0,3.2,2.62,5.81,5.81,5.81c3.2,0,5.81-2.62,5.81-5.81C148.07,82.97,145.46,80.36,142.26,80.36z M107.38,80.36
				c-3.2,0-5.81,2.62-5.81,5.81c0,3.2,2.62,5.81,5.81,5.81c3.2,0,5.81-2.62,5.81-5.81S110.58,80.36,107.38,80.36z"/>
			<path class="st1" d="M142.26,93.98c-4.31,0-7.81-3.5-7.81-7.81s3.5-7.81,7.81-7.81c2.08,0,4.04,0.81,5.52,2.29
				c1.48,1.48,2.29,3.44,2.29,5.52C150.07,90.48,146.57,93.98,142.26,93.98z M142.26,83.81c-1.37,0-2.36,0.99-2.36,2.36
				c0,1.37,0.99,2.36,2.36,2.36c1.37,0,2.36-0.99,2.36-2.36C144.62,84.8,143.63,83.81,142.26,83.81z M107.38,93.98
				c-4.31,0-7.81-3.5-7.81-7.81s3.5-7.81,7.81-7.81s7.81,3.5,7.81,7.81S111.69,93.98,107.38,93.98z M107.38,83.81
				c-1.37,0-2.36,0.99-2.36,2.36c0,1.37,0.99,2.36,2.36,2.36c1.37,0,2.36-0.99,2.36-2.36C109.74,84.8,108.75,83.81,107.38,83.81z"/>
		</g>
		<g>
			<path class="st1" d="M124.82,103.17l18.46,24.56l0.87,1.16l1.16-0.87l9.45-6.83l1.16-0.87l-1.02-1.16l-11.04-14.1h26.01v31.97
				h-90.1v-31.97h26.01l-11.19,14.1l-1.02,1.16l1.16,0.87l9.45,6.83l1.16,0.87l0.87-1.16L124.82,103.17 M169.87,157.38v8.72l-90.1,0
				v-8.72L169.87,157.38 M124.82,100.7l-19.62,26.16l-9.45-6.83l13.08-16.42H78.32v34.88h93.01v-34.88H140.8l13.08,16.42l-9.45,6.83
				L124.82,100.7z M171.32,155.93H78.32v11.63h93.01V155.93z"/>
			<path class="st1" d="M173.32,169.55H76.32v-15.63h97.01V169.55z M81.77,164.1l86.1,0v-4.72l-86.1,0V164.1z M173.32,140.49H76.31
				v-38.88h36.67l-14.36,18.03l6.15,4.45l20.04-26.72l20.04,26.72l6.16-4.45l-14.36-18.03h36.67V140.49z M81.77,135.03h86.1v-27.97
				h-19.91l8.48,10.82l2.4,2.75l-2.89,2.17l-12.21,8.9l-18.93-25.2l-19.07,25.2l-2.76-2.07l-12.33-8.99l2.44-2.79l8.56-10.78H81.77
				V135.03z"/>
		</g>
	</g>
	<g>
		<path class="st1" d="M124.82,244C58.63,244,4.79,190.15,4.79,123.97C4.79,57.78,58.63,3.93,124.82,3.93
			s120.04,53.85,120.04,120.04C244.86,190.15,191.01,244,124.82,244z M124.82,20.33c-57.14,0-103.63,46.49-103.63,103.64
			c0,57.14,46.49,103.63,103.63,103.63s103.64-46.49,103.64-103.63C228.46,66.82,181.96,20.33,124.82,20.33z"/>
	</g>
</g>
<g>
	<path class="st2" d="M-627.61,173.58c2.38,0,4.31-1.93,4.31-4.31c0-2.38-1.93-4.32-4.31-4.32c-2.38,0-4.32,1.94-4.32,4.32
		c0,0.48,0.08,0.94,0.23,1.37l-11.76,5.89c-0.77-1.13-2.07-1.87-3.55-1.87c-2.38,0-4.32,1.93-4.32,4.31s1.94,4.32,4.32,4.32
		c1.47,0,2.77-0.75,3.55-1.87l11.76,5.88c-0.15,0.43-0.23,0.89-0.23,1.38c0,2.38,1.94,4.31,4.32,4.31c2.38,0,4.31-1.93,4.31-4.31
		c0-2.38-1.93-4.32-4.31-4.32c-1.47,0-2.78,0.75-3.55,1.87l-11.76-5.88c0.15-0.43,0.23-0.89,0.23-1.38s-0.08-0.94-0.23-1.37
		l11.76-5.89C-630.38,172.84-629.08,173.58-627.61,173.58L-627.61,173.58z"/>
	<path class="st3" d="M-639.23,202.87h116.96c13.05,0,23.63-10.58,23.63-23.63v0c0-13.05-10.58-23.63-23.63-23.63h-116.96
		c-13.05,0-23.63,10.58-23.63,23.63v0C-662.86,192.29-652.28,202.87-639.23,202.87z"/>
	<circle class="st4" cx="-636.07" cy="179.37" r="20.61"/>
	<text transform="matrix(1 0 0 1 -575.5859 184.6758)" class="st2" style="font-family:'HacenSaudiArabia'; font-size:16.4859px;">ريش</text>
</g>
<g>
	<text transform="matrix(1 0 0 1 -986.9512 15.4531)" style="fill:#4D4D4D; font-family:'HacenSaudiArabia'; font-size:31.5265px;"> رمحا ةبنمب رفصا يسرك</text>
</g>
</svg>
