<?xml version="1.0" encoding="utf-8"?>
<!-- Generator: Adobe Illustrator 24.1.1, SVG Export Plug-In . SVG Version: 6.00 Build 0)  -->
<svg version="1.1" id="Layer_1" xmlns="http://www.w3.org/2000/svg" xmlns:xlink="http://www.w3.org/1999/xlink" x="0px" y="0px"
	 viewBox="0 0 240 237.5" style="enable-background:new 0 0 240 237.5;" xml:space="preserve">
<style type="text/css">
	.st0{fill:#FFFFFF;stroke:#FFFFFF;stroke-miterlimit:10;}
</style>
<g>
	<path class="st0" d="M197.8,151l-28.9-6.4v-9.1c11.2-8.1,18.5-21.2,18.5-35.9V79.8c0.8-0.8,1.5-1.6,2.1-2.5h5.3h11.1v-7.4h-7.4
		v-7.4c0-26.4-19.1-49.3-44.8-54.3c-1-2.8-3.7-4.8-6.9-4.8h-7.4c-3.2,0-5.9,2-6.9,4.8c-25.7,5-44.8,27.8-44.8,54.3v7.4h-7.4v7.4
		h16.4c0.6,0.9,1.3,1.7,2.1,2.5v19.7c0,14.8,7.3,27.9,18.5,35.9v9.1l-29,6.5c-22.1,4.9-37.6,24.2-37.6,46.9v34.6h184.7v-34.6
		C235.4,175.2,220,155.9,197.8,151L197.8,151z M152.4,176.9l-9.4,12.5l-9.4-12.5l9.4-9.4L152.4,176.9z M191.1,210.3h-44.3v-13.6
		l31.9-42.5l12.5,2.8v53.3H191.1z M139.4,196.8v13.6H95v-53.3l12.5-2.8L139.4,196.8z M95,217.7h44.3v7.4H95V217.7z M146.8,217.7
		h44.3v7.4h-44.3V217.7z M170.7,152.5l-13.8,18.4l-10.1-10.1l18.9-9.4L170.7,152.5z M106.1,84.1c1.5,0.4,3,0.6,4.6,0.6h64.8
		c1.6,0,3.1-0.2,4.6-0.6v13.1l-4.9,2.5c-4.6,2.3-9.7,3.5-14.9,3.5h-6.1c-0.6,0-1.2-0.4-1.4-1l-1.4-4.1c-1.2-3.6-4.6-6-8.4-6
		c-3.8,0-7.2,2.4-8.4,6l-1.4,4.1c-0.2,0.6-0.7,1-1.4,1h-6.1c-5.1,0-10.3-1.2-14.9-3.5l-4.9-2.5L106.1,84.1z M95,69.9v-7.4
		c0-22.3,15.6-41.6,36.9-46.7V33h7.4V10.8h7.4V33h7.4V15.9C175.4,21,191,40.3,191,62.6V70h-6l-1,2c-1.6,3.3-5,5.3-8.6,5.3h-64.8
		c-3.7,0-7-2.1-8.7-5.3l-1-2L95,69.9L95,69.9z M106.7,105.8l1.1,0.5c5.6,2.8,11.9,4.3,18.2,4.3h6.1c3.8,0,7.2-2.4,8.4-6l1.4-4.1
		c0.4-1.2,2.3-1.2,2.7,0l1.4,4.1c1.2,3.6,4.6,6,8.4,6h6.1c6.3,0,12.6-1.5,18.2-4.3l1.1-0.5c-3,17.4-18.1,30.7-36.4,30.7
		S109.7,123.2,106.7,105.8L106.7,105.8z M143.1,143.8c6.6,0,12.8-1.5,18.5-4.1v5.5l-18.5,9.2l-18.5-9.2v-5.5
		C130.2,142.3,136.5,143.8,143.1,143.8z M120.4,151.4l18.9,9.4l-10.1,10.1l-13.8-18.4L120.4,151.4z M58.1,197.9
		c0-18.4,12.1-34.1,29.5-39.1v66.3H58.1V197.9z M228,225.1h-29.6v-66.3c17.5,4.9,29.6,20.7,29.6,39.1V225.1z"/>
	<path class="st0" d="M180,69.9v-7.4h-22.3c2.4-3.1,3.8-6.9,3.8-11.1c0-10.2-8.3-18.5-18.5-18.5s-18.5,8.3-18.5,18.5
		c0,4.2,1.4,8,3.8,11.1H106v7.4H180z M132,51.5c0-6.1,5-11.1,11.1-11.1s11.1,5,11.1,11.1s-5,11.1-11.1,11.1S132,57.6,132,51.5z"/>
	<path class="st0" d="M154.1,195.6h29.6v7.4h-29.6V195.6z"/>
	<path class="st0" d="M61.8,118v-0.6c0-2.7-0.7-5.3-2.1-7.6L47,88.6l-12.7,21.1c-1.4,2.3-2.1,4.9-2.1,7.6v0.6
		c0,8.2,6.6,14.8,14.8,14.8S61.8,126.1,61.8,118L61.8,118z M39.6,118v-0.6c0-1.3,0.4-2.7,1-3.8L47,103l6.3,10.6c0.7,1.1,1,2.5,1,3.8
		v0.6c0,4.1-3.3,7.4-7.4,7.4S39.6,122,39.6,118L39.6,118z"/>
	<path class="st0" d="M58.1,154.9v-9.3c1.1-0.4,2.2-0.8,3.2-1.3l6.6,6.6l15.7-15.7l-6.6-6.6c0.5-1.1,0.9-2.1,1.3-3.2h9.3v-22.2h-9.3
		c-0.4-1.1-0.8-2.2-1.3-3.2l6.6-6.6L67.9,77.7l-6.6,6.6c-1-0.5-2.1-0.9-3.2-1.3v-9.3H35.9V83c-1.1,0.4-2.2,0.8-3.2,1.3l-6.6-6.6
		L10.4,93.4L17,100c-0.5,1.1-0.9,2.1-1.3,3.2H6.4v22.2h9.3c0.4,1.1,0.8,2.2,1.3,3.2l-6.6,6.6l15.7,15.7l6.6-6.6
		c1,0.5,2.1,0.9,3.2,1.3v9.3H58.1L58.1,154.9z M33.9,136.5l-2.5-1.5l-5.3,5.3l-5.2-5.2l5.3-5.3l-1.5-2.5c-1.2-2.1-2.1-4.3-2.8-6.7
		l-0.7-2.8h-7.5v-7.4h7.5l0.7-2.8c0.6-2.3,1.5-4.6,2.8-6.7l1.5-2.5l-5.3-5.3l5.2-5.2l5.3,5.3l2.5-1.5c2.1-1.2,4.3-2.1,6.7-2.8
		l2.8-0.7V81h7.4v7.5l2.8,0.7c2.3,0.6,4.6,1.5,6.7,2.8l2.5,1.5l5.3-5.3l5.2,5.2L68,98.7l1.5,2.5c1.2,2.1,2.2,4.3,2.8,6.7l0.7,2.8
		h7.5v7.4H73l-0.7,2.8c-0.6,2.3-1.5,4.6-2.8,6.7l-1.5,2.5l5.3,5.3l-5.2,5.2l-5.3-5.3l-2.5,1.5c-2.1,1.2-4.3,2.1-6.7,2.8l-2.8,0.7
		v7.5h-7.4V140l-2.8-0.7C38.2,138.7,36,137.8,33.9,136.5z"/>
</g>
</svg>
