<?xml version="1.0" encoding="utf-8"?>
<!-- Generator: Adobe Illustrator 23.0.1, SVG Export Plug-In . SVG Version: 6.00 Build 0)  -->
<svg version="1.1" id="Layer_1" xmlns="http://www.w3.org/2000/svg" xmlns:xlink="http://www.w3.org/1999/xlink" x="0px" y="0px"
	 viewBox="0 0 261 89" style="enable-background:new 0 0 261 89;" xml:space="preserve">
<style type="text/css">
	.st0{fill:#FFFFFF;}
	.st1{fill:#1A1A1A;}
	.st2{font-family:'HacenSaudiArabia';}
	.st3{font-size:18px;}
	.st4{font-size:33.2284px;}
</style>
<g>
	<path class="st0" d="M9.09,86h244.63c2.91,0,5.28-2.36,5.28-5.28V8.09c0-2.91-2.36-5.28-5.28-5.28H9.09
		c-2.91,0-5.28,2.36-5.28,5.28v72.63C3.82,83.64,6.18,86,9.09,86z"/>
	<g>
		<g>
			<path id="apple_18_" class="st1" d="M221.66,20.92c2.26-2.68,3.39-5.57,3.39-8.68c0-0.41-0.02-0.83-0.07-1.24
				c-1.57,0.08-3.25,0.56-5.01,1.42c-1.77,0.87-3.23,1.97-4.38,3.29c-2.3,2.6-3.6,5.79-3.6,8.77c0,0.41,0.03,0.8,0.07,1.17
				C215.64,25.94,218.94,24.1,221.66,20.92z"/>
			<path id="apple_17_" class="st1" d="M233.82,53.63c-2.82-2.61-4.26-5.91-4.3-9.86c-0.05-5.08,2.26-9.04,6.93-11.87
				c-2.61-3.7-6.53-5.76-11.74-6.18c-1.93-0.16-4.27,0.25-7.06,1.25c-2.94,1.08-4.68,1.62-5.19,1.62c-0.69,0-2.25-0.46-4.68-1.38
				c-2.44-0.91-4.41-1.37-5.91-1.37c-2.74,0.05-5.28,0.76-7.63,2.15c-2.35,1.4-4.23,3.3-5.65,5.71c-1.8,3-2.7,6.59-2.7,10.74
				c0,3.63,0.67,7.37,1.99,11.24c1.24,3.58,2.82,6.72,4.75,9.43c1.79,2.54,3.29,4.33,4.49,5.37c1.88,1.74,3.76,2.58,5.64,2.5
				c1.24-0.04,2.86-0.47,4.88-1.28c2.01-0.81,3.89-1.21,5.64-1.21c1.67,0,3.5,0.4,5.49,1.21c1.98,0.81,3.69,1.22,5.1,1.22
				c1.97-0.05,3.8-0.85,5.52-2.43c1.11-0.96,2.54-2.69,4.29-5.19c1.29-1.83,2.4-3.83,3.33-5.99c0.39-0.92,0.75-1.88,1.09-2.87
				C236.53,55.78,235.1,54.84,233.82,53.63z"/>
		</g>
	</g>
	<g>
		<text transform="matrix(1.0199 0 0 1 21.6504 34.2451)" class="st1 st2 st3">Download on the</text>
	</g>
	<g>
		<text transform="matrix(1.0199 0 0 1 13.8462 70.875)" class="st1 st2 st4">APP Store</text>
	</g>
</g>
</svg>
