<?xml version="1.0" encoding="utf-8"?>
<!-- Generator: Adobe Illustrator 23.0.1, SVG Export Plug-In . SVG Version: 6.00 Build 0)  -->
<svg version="1.1" id="Layer_1" xmlns="http://www.w3.org/2000/svg" xmlns:xlink="http://www.w3.org/1999/xlink" x="0px" y="0px"
	 viewBox="0 0 251 291" style="enable-background:new 0 0 251 291;" xml:space="preserve">
<style type="text/css">
	.st0{fill:#FCB00C;}
</style>
<g>
	<path class="st0" d="M243.52,56.11h-24.04V44.57c-0.02-2.03-1.66-3.67-3.68-3.68h-11.54V25.1c0-2.03-1.65-3.68-3.68-3.68
		s-3.68,1.65-3.68,3.68v15.79h-10.31V25.1c0-2.03-1.65-3.68-3.68-3.68s-3.68,1.65-3.68,3.68v15.79h-8.82
		c-2.03,0-3.68,1.65-3.68,3.68v11.54h-9.08c-2.03,0-3.68,1.65-3.68,3.68v85.2l-22.81,4.91v-42.08c-0.02-12.72-4.2-25.08-11.91-35.2
		C111.52,62.5,100.7,55.2,88.44,51.81l-0.52-26.79c-0.04-2.01-1.68-3.61-3.68-3.61H73.19V6.68c0-2.03-1.65-3.68-3.68-3.68
		s-3.68,1.65-3.68,3.68v14.73H54.14c-0.99,0-1.94,0.4-2.63,1.1c-0.69,0.71-1.07,1.66-1.05,2.65l0.29,16.65L6.9,30.23
		c-1.1-0.29-2.28-0.05-3.18,0.65c-0.9,0.7-1.43,1.77-1.43,2.91v251.4c0,2.03,1.65,3.68,3.68,3.68H243.5c2.03,0,3.68-1.65,3.68-3.68
		V59.8C247.18,57.77,245.54,56.13,243.52,56.11L243.52,56.11z M100.62,281.51H9.77V60.36l60.97,16.13
		c8.58,2.32,16.15,7.39,21.55,14.44s8.33,15.69,8.33,24.57L100.62,281.51z M107.99,162.45l105.16-22.66v141.72H107.99V162.45z
		 M220.52,177.36h19.45v20.36h-19.45V177.36z M220.52,205.08h19.45v20.33h-19.45V205.08z M239.96,169.99h-19.45v-20.33h19.45V169.99
		z M220.52,232.77h19.45v20.33h-19.45V232.77z M174.09,48.26h38.03v7.86h-38.03V48.26z M239.84,63.48v17.8h-78.57v-17.8H239.84z
		 M161.32,143.52V88.64h78.57v25.95h-63.05c-2.03,0-3.68,1.65-3.68,3.68s1.65,3.68,3.68,3.68h63v20.33h-19.32v-7.07
		c0-1.12-0.5-2.17-1.37-2.87c-0.87-0.69-2-0.96-3.09-0.74L161.32,143.52z M69.51,28.78h11.05l0.37,21.04l-22.86-6.04l-0.27-15
		C57.8,28.78,69.51,28.78,69.51,28.78z M86.06,58.78L86.06,58.78c10.82,2.89,20.38,9.26,27.2,18.15
		c6.82,8.88,10.52,19.77,10.51,30.96v43.61l-15.79,3.41v-39.29c0.02-10.55-3.45-20.81-9.87-29.18
		c-6.42-8.37-15.44-14.37-25.63-17.08L9.68,52.67V38.58L86.06,58.78z M220.51,281.51v-21.04h19.45v21.04H220.51z"/>
	<path class="st0" d="M85.02,114.6h-63.1c-2.03,0-3.68,1.65-3.68,3.68s1.65,3.68,3.68,3.68h63.1c2.03,0,3.68-1.65,3.68-3.68
		C88.71,116.25,87.06,114.6,85.02,114.6z"/>
	<path class="st0" d="M85.02,142.29h-63.1c-2.03,0-3.68,1.65-3.68,3.68s1.65,3.68,3.68,3.68h63.1c2.03,0,3.68-1.65,3.68-3.68
		C88.71,143.94,87.06,142.29,85.02,142.29z"/>
	<path class="st0" d="M85.02,169.99h-63.1c-2.03,0-3.68,1.65-3.68,3.68s1.65,3.68,3.68,3.68h63.1c2.03,0,3.68-1.65,3.68-3.68
		C88.71,171.64,87.06,169.99,85.02,169.99z"/>
	<path class="st0" d="M85.02,197.71h-63.1c-2.03,0-3.68,1.65-3.68,3.68s1.65,3.68,3.68,3.68h63.1c2.03,0,3.68-1.65,3.68-3.68
		C88.71,199.36,87.06,197.71,85.02,197.71z"/>
	<path class="st0" d="M85.02,225.4h-63.1c-2.03,0-3.68,1.65-3.68,3.68s1.65,3.68,3.68,3.68h63.1c2.03,0,3.68-1.65,3.68-3.68
		C88.71,227.05,87.06,225.4,85.02,225.4z"/>
	<path class="st0" d="M85.02,253.1h-63.1c-2.03,0-3.68,1.65-3.68,3.68s1.65,3.68,3.68,3.68h63.1c2.03,0,3.68-1.65,3.68-3.68
		C88.71,254.75,87.06,253.1,85.02,253.1z"/>
	<path class="st0" d="M126.22,169.99c-2.03,0-3.68,1.65-3.68,3.68v83.11c0,2.03,1.65,3.68,3.68,3.68s3.68-1.65,3.68-3.68v-83.11
		C129.91,171.64,128.26,169.99,126.22,169.99z"/>
	<path class="st0" d="M160.5,169.99c-2.03,0-3.68,1.65-3.68,3.68v83.11c0,2.03,1.65,3.68,3.68,3.68s3.68-1.65,3.68-3.68v-83.11
		C164.19,171.64,162.54,169.99,160.5,169.99z"/>
	<path class="st0" d="M194.78,169.99c-2.03,0-3.68,1.65-3.68,3.68v83.11c0,2.03,1.65,3.68,3.68,3.68s3.68-1.65,3.68-3.68v-83.11
		C198.46,171.64,196.81,169.99,194.78,169.99z"/>
</g>
</svg>
