<?xml version="1.0" encoding="utf-8"?>
<!-- Generator: Adobe Illustrator 23.0.1, SVG Export Plug-In . SVG Version: 6.00 Build 0)  -->
<svg version="1.1" id="Layer_1" xmlns="http://www.w3.org/2000/svg" xmlns:xlink="http://www.w3.org/1999/xlink" x="0px" y="0px"
	 viewBox="0 0 300 300" style="enable-background:new 0 0 300 300;" xml:space="preserve">
<g>
	<path d="M257.19,297.5l-44.23-14.71L52.34,122.11c-2.22-2.22-2.22-5.82,0-8.04s5.82-2.22,8.03,0L219.1,272.85l20.12,6.69
		l-6.71-20.08L75.28,102.12c-2.22-2.22-2.22-5.82,0-8.04s5.82-2.22,8.04,0l159.13,159.23L257.19,297.5z"/>
	<path d="M21.8,89.33c-1.45,0-2.91-0.55-4.02-1.66L7.06,76.96c-1.07-1.07-1.67-2.51-1.67-4.02c0-1.51,0.6-2.95,1.66-4.02
		l21.42-21.45c1.07-1.07,2.51-1.67,4.02-1.67l0,0c1.51,0,2.95,0.6,4.02,1.66l10.72,10.72c2.23,2.22,2.23,5.82,0,8.04
		c-2.22,2.22-5.82,2.22-8.04,0l-6.7-6.7L19.1,72.92l6.7,6.69c2.22,2.22,2.23,5.82,0.01,8.04C24.72,88.78,23.26,89.33,21.8,89.33
		L21.8,89.33z"/>
	<path d="M44.26,113c-1.52,0-3.03-0.61-4.15-1.8c-2.15-2.29-2.03-5.89,0.27-8.03l22.87-21.4c2.29-2.15,5.89-2.03,8.03,0.27
		c2.15,2.29,2.03,5.89-0.26,8.03l-22.87,21.4C47.04,112.49,45.65,113,44.26,113L44.26,113z"/>
	<path d="M32.5,101.24c-1.52,0-3.03-0.61-4.15-1.8c-2.14-2.29-2.02-5.89,0.27-8.03l22.87-21.4c2.29-2.15,5.89-2.02,8.03,0.27
		c2.14,2.29,2.02,5.89-0.27,8.03l-22.87,21.4C35.28,100.73,33.89,101.24,32.5,101.24L32.5,101.24z"/>
	<path d="M125.53,208.74L51.8,282.47l-35.77-35.81l73.93-73.93c2.32-2.32,6.06-2.32,8.34,0c2.32,2.28,2.32,6.02,0,8.34l-9.38,9.41
		l5.4,5.4c2.28,2.28,2.28,6.02,0,8.34c-1.18,1.14-2.66,1.73-4.19,1.73c-1.52,0-3.01-0.59-4.19-1.73l-5.4-5.4l-9.72,9.72l5.4,5.4
		c2.32,2.32,2.32,6.06,0,8.37c-1.14,1.14-2.66,1.69-4.19,1.69c-1.49,0-3.01-0.55-4.15-1.73l-5.4-5.4l-10.97,10.97l5.4,5.4
		c2.28,2.32,2.28,6.06,0,8.37c-1.18,1.14-2.66,1.73-4.19,1.73c-1.52,0-3.01-0.59-4.15-1.73l-5.4-5.4L32.7,246.66l19.1,19.1
		l65.36-65.36c2.32-2.32,6.06-2.32,8.37,0C127.81,202.72,127.81,206.45,125.53,208.74L125.53,208.74z"/>
	<path d="M165.32,166.49c-1.51,0-3.02-0.58-4.17-1.73c-2.31-2.3-2.31-6.04,0-8.35l66.25-66.26l-19.09-19.1l-64.91,64.92
		c-2.31,2.3-6.04,2.3-8.35,0c-2.3-2.31-2.3-6.04,0-8.35l73.27-73.27l35.78,35.8l-74.6,74.6
		C168.34,165.91,166.83,166.49,165.32,166.49L165.32,166.49z"/>
	<path d="M163.37,92.08L85.76,14.47l4.17-4.18c5.54-5.54,12.89-8.59,20.7-8.59c7.79,0,15.12,3.04,20.64,8.56l34.59,34.59
		c1.64,1.51,9.81,1.85,14.19,2.03l0.45,0.02c5.07-1.34,10.49-1.27,15.54,0.21l9.54,2.81L163.37,92.08z M103.16,15.18l60.21,60.21
		l16.71-16.69l-0.52-0.02c-8.5-0.35-17.29-0.71-22.05-5.47l-34.59-34.59c-3.29-3.29-7.66-5.11-12.3-5.11
		C108.01,13.51,105.47,14.08,103.16,15.18L103.16,15.18z"/>
	<path d="M284.28,212.96l-77.91-77.88l42.26-42.22l2.87,9.39c1.59,5.21,1.7,10.71,0.33,15.99l0.01,0.3
		c0.18,4.44,0.52,12.69,2.05,14.37l34.57,34.53c11.38,11.43,11.38,29.97,0,41.35L284.28,212.96z M223.07,135.09l60.48,60.46
		c3.02-6.46,1.87-14.41-3.45-19.76l-34.58-34.54c-4.76-4.8-5.12-13.65-5.48-22.21l-0.04-0.86L223.07,135.09z"/>
	<path d="M203.25,93.21c-2.11-2.11-2.11-5.53,0.02-7.66c2.11-2.11,5.53-2.11,7.64,0c2.1,2.11,2.1,5.53,0,7.64
		C208.77,95.32,205.35,95.32,203.25,93.21L203.25,93.21z"/>
</g>
</svg>
