<?xml version="1.0" encoding="utf-8"?>
<!-- Generator: Adobe Illustrator 23.0.1, SVG Export Plug-In . SVG Version: 6.00 Build 0)  -->
<svg version="1.1" id="Layer_1" xmlns="http://www.w3.org/2000/svg" xmlns:xlink="http://www.w3.org/1999/xlink" x="0px" y="0px"
	 viewBox="0 0 261 89" style="enable-background:new 0 0 261 89;" xml:space="preserve">
<style type="text/css">
	.st0{fill:#FFFFFF;}
	.st1{fill:#1A1A1A;}
	.st2{font-family:'HacenSaudiArabia';}
	.st3{font-size:18px;}
	.st4{font-size:33.2284px;}
</style>
<g>
	<path class="st0" d="M8.28,87h244.63c2.91,0,5.28-2.36,5.28-5.28V9.09c0-2.91-2.36-5.28-5.28-5.28H8.28C5.36,3.81,3,6.17,3,9.09
		v72.63C3,84.64,5.36,87,8.28,87z"/>
	<g>
		<text transform="matrix(1.0199 0 0 1 77.9863 35.2451)" class="st1 st2 st3">GET IT ON</text>
	</g>
	<g>
		<text transform="matrix(1.0199 0 0 1 76.3315 71.875)" class="st1 st2 st4">Google Play</text>
	</g>
	<path d="M17.41,21.22c0.88-0.11,1.78,0.08,2.54,0.55L45.7,36.42l-6.52,6.6L17.41,21.22z M15.43,23.2
		c-0.12,0.43-0.18,0.88-0.18,1.33v40.94c-0.01,0.45,0.05,0.9,0.18,1.33L37.22,45L15.43,23.2z M39.2,46.98l-21.8,21.8
		c0.88,0.13,1.78-0.07,2.54-0.55L45.7,53.58L39.2,46.98z M56.09,42.34l-7.81-4.44L41.15,45l7.11,7.11l7.81-4.44
		c2.58-1.47,2.58-3.88,0-5.35L56.09,42.34z"/>
</g>
</svg>
