<?xml version="1.0" encoding="utf-8"?>
<!-- Generator: Adobe Illustrator 23.0.1, SVG Export Plug-In . SVG Version: 6.00 Build 0)  -->
<svg version="1.1" id="Layer_1" xmlns="http://www.w3.org/2000/svg" xmlns:xlink="http://www.w3.org/1999/xlink" x="0px" y="0px"
	 viewBox="0 0 291 300" style="enable-background:new 0 0 291 300;" xml:space="preserve">
<style type="text/css">
	.st0{fill:#FCB00C;}
</style>
<g>
	<path class="st0" d="M283.62,199.72l-17.85-2.55l0,0c-1.37-4.89-3.33-9.61-5.83-14.03l10.82-14.44c1.47-1.96,1.27-4.69-0.45-6.42
		l-13.91-13.91c-1.73-1.73-4.46-1.92-6.42-0.45l-14.44,10.82c-4.43-2.5-9.14-4.46-14.03-5.83l-2.55-17.85
		c-0.35-2.42-2.42-4.21-4.86-4.21h-4.92V27.58c-0.01-6.52-2.6-12.77-7.21-17.38S191.11,3,184.59,2.99H27.26
		C20.74,3,14.49,5.59,9.88,10.2s-7.2,10.86-7.21,17.38v216.33c0.01,6.52,2.6,12.77,7.21,17.38c4.61,4.61,10.86,7.2,17.38,7.21
		h112.88l11.97,11.97l0,0c1.73,1.73,4.46,1.92,6.42,0.45l14.44-10.82c4.43,2.5,9.14,4.46,14.03,5.83l2.55,17.85l0,0
		c0.35,2.42,2.42,4.21,4.87,4.21h19.67c2.45,0,4.52-1.8,4.87-4.22l2.55-17.85l0,0c4.89-1.37,9.61-3.33,14.03-5.83l14.44,10.82
		c1.96,1.47,4.69,1.27,6.42-0.45l13.91-13.91c1.73-1.73,1.92-4.46,0.45-6.42l-10.82-14.44c2.5-4.43,4.46-9.14,5.83-14.03l17.85-2.55
		c2.42-0.35,4.21-2.42,4.21-4.86v-19.67C287.84,202.14,286.04,200.06,283.62,199.72L283.62,199.72z M169.84,12.83v32.38l-6.36-6.36
		c-1.92-1.92-5.03-1.92-6.95,0l-6.36,6.36V12.83H169.84z M12.51,243.91V27.58c0-3.91,1.55-7.66,4.32-10.43s6.52-4.32,10.43-4.32
		h113.08v44.25c0,1.99,1.2,3.78,3.04,4.54c1.84,0.76,3.95,0.34,5.36-1.06l11.27-11.28l11.27,11.27l0,0
		c0.92,0.92,2.17,1.44,3.48,1.44c0.65,0,1.29-0.13,1.88-0.37c1.84-0.76,3.03-2.55,3.03-4.54V12.83h4.92c3.91,0,7.66,1.55,10.43,4.32
		s4.32,6.52,4.32,10.43v103.25h-4.92c-2.45,0-4.52,1.8-4.87,4.22L187,152.9l0,0c-4.89,1.37-9.61,3.33-14.03,5.83l-14.44-10.82
		c-1.96-1.47-4.69-1.27-6.42,0.45l-13.91,13.91c-1.73,1.73-1.92,4.46-0.45,6.42l10.82,14.44c-2.5,4.43-4.46,9.14-5.83,14.03
		l-17.85,2.55c-2.42,0.35-4.21,2.42-4.21,4.86v19.67c0,2.45,1.8,4.52,4.22,4.87l17.85,2.55l0,0c1.37,4.89,3.33,9.61,5.83,14.03
		l-9.71,12.97H27.26c-3.91,0-7.66-1.55-10.43-4.32C14.06,251.58,12.51,247.83,12.51,243.91L12.51,243.91z M278.01,219.99
		l-16.89,2.41c-2.03,0.29-3.66,1.8-4.1,3.8c-1.35,6.1-3.77,11.91-7.13,17.18c-1.09,1.72-1.01,3.94,0.22,5.58l10.25,13.67l-7.87,7.87
		l-13.67-10.25l0,0c-1.64-1.22-3.85-1.31-5.58-0.22c-5.27,3.36-11.08,5.77-17.18,7.13c-2,0.44-3.51,2.08-3.8,4.1l-2.41,16.9h-11.14
		l-2.41-16.89c-0.29-2.03-1.8-3.66-3.8-4.1c-6.1-1.35-11.91-3.77-17.18-7.13c-1.72-1.09-3.94-1.01-5.58,0.22l-13.67,10.25
		l-7.87-7.87l10.25-13.67l0,0c1.22-1.64,1.31-3.85,0.22-5.58c-3.36-5.27-5.77-11.08-7.13-17.18c-0.44-2-2.08-3.51-4.1-3.8
		l-16.9-2.41v-11.14l16.89-2.41c2.03-0.29,3.66-1.8,4.1-3.8c1.35-6.1,3.77-11.91,7.13-17.18c1.09-1.72,1.01-3.94-0.22-5.58
		l-10.25-13.67l7.87-7.87l13.67,10.25l0,0c1.64,1.22,3.85,1.31,5.58,0.22c5.27-3.36,11.08-5.77,17.18-7.13c2-0.44,3.51-2.08,3.8-4.1
		l2.41-16.9h11.14l2.41,16.89c0.29,2.03,1.8,3.66,3.8,4.1c6.1,1.35,11.91,3.77,17.18,7.13c1.72,1.09,3.94,1.01,5.58-0.22
		l13.67-10.25l7.87,7.87l-10.25,13.67l0,0c-1.22,1.64-1.31,3.85-0.22,5.58c3.36,5.27,5.77,11.08,7.13,17.18
		c0.44,2,2.08,3.51,4.1,3.8l16.89,2.41L278.01,219.99z"/>
	<path class="st0" d="M204.26,175.08c-10.43,0-20.44,4.14-27.81,11.52c-7.38,7.38-11.52,17.38-11.52,27.81s4.14,20.44,11.52,27.81
		c7.38,7.38,17.38,11.52,27.81,11.52s20.44-4.14,27.81-11.52c7.38-7.37,11.52-17.38,11.52-27.81c-0.01-10.43-4.16-20.43-11.53-27.8
		C224.68,179.24,214.69,175.09,204.26,175.08z M204.26,243.91c-7.83,0-15.33-3.11-20.86-8.64s-8.64-13.04-8.64-20.86
		s3.11-15.33,8.64-20.86s13.04-8.64,20.86-8.64s15.33,3.11,20.86,8.64s8.64,13.04,8.64,20.86c-0.01,7.82-3.12,15.32-8.65,20.85
		C219.58,240.8,212.08,243.91,204.26,243.91z"/>
	<path class="st0" d="M32.17,32.5h19.67v9.83H32.17V32.5z"/>
	<path class="st0" d="M61.67,32.5h49.17v9.83H61.67V32.5z"/>
	<path class="st0" d="M32.17,52.16h78.67V62H32.17V52.16z"/>
	<path class="st0" d="M32.17,91.5h137.67v9.83H32.17V91.5z"/>
	<path class="st0" d="M32.17,121h108.17v9.83H32.17V121z"/>
	<path class="st0" d="M150.17,121h19.67v9.83h-19.67V121z"/>
	<path class="st0" d="M32.17,150.5h98.33v9.83H32.17V150.5z"/>
	<path class="st0" d="M32.17,189.83H71.5v9.83H32.17V189.83z"/>
	<path class="st0" d="M32.17,209.5H71.5v9.83H32.17V209.5z"/>
</g>
</svg>
