<?xml version="1.0" encoding="utf-8"?>
<!-- Generator: Adobe Illustrator 23.0.1, SVG Export Plug-In . SVG Version: 6.00 Build 0)  -->
<svg version="1.1" id="Layer_1" xmlns="http://www.w3.org/2000/svg" xmlns:xlink="http://www.w3.org/1999/xlink" x="0px" y="0px"
	 viewBox="0 0 282 284" style="enable-background:new 0 0 282 284;" xml:space="preserve">
<style type="text/css">
	.st0{fill:#FBAE17;}
</style>
<path class="st0" d="M236.95,87.59c23.59,0,42.78-19.15,42.78-42.78C279.73,21.22,260.58,2,236.95,2
	c-23.59,0-42.81,19.22-42.81,42.81c0,4.79,0.76,9.35,2.29,13.59L79.74,116.78c-7.64-11.23-20.57-18.56-35.2-18.56
	C20.95,98.22,1.73,117.4,1.73,141s19.22,42.81,42.81,42.81c14.59,0,27.49-7.4,35.2-18.56l116.69,58.31
	c-1.53,4.27-2.29,8.86-2.29,13.66c0,23.59,19.22,42.78,42.81,42.78c23.63,0,42.78-19.18,42.78-42.78
	c0-23.59-19.15-42.81-42.78-42.81c-14.59,0-27.56,7.4-35.24,18.56L85.02,154.66c1.53-4.27,2.29-8.86,2.29-13.66
	c0-4.79-0.76-9.35-2.29-13.59l116.69-58.38C209.4,80.26,222.36,87.59,236.95,87.59L236.95,87.59z"/>
</svg>
